<svg width="246" height="239" viewBox="0 0 246 239" fill="none" xmlns="http://www.w3.org/2000/svg">
<g clip-path="url(#clip0_478_6140)">
<path d="M190.521 238.303L190.506 232.797C190.43 202.467 213.548 177.211 219.372 171.335L230.011 171.335C238.196 171.335 244.976 164.983 245.445 156.878C245.939 148.374 243.12 139.288 237.072 129.88C229.608 118.271 217.22 106.322 200.222 94.34C200.471 93.326 200.713 92.3046 200.943 91.2832L203.305 91.2832C211.227 91.2832 217.674 84.8365 217.674 76.9144L217.674 68.3663C217.674 63.4278 213.654 59.4082 208.715 59.4082L204.414 59.4082C204.41 59.3387 204.407 59.2691 204.399 59.1996C205.787 57.5888 206.742 55.6559 207.255 53.4264C209.265 53.1372 211.34 52.826 213.449 52.1195C216.173 51.2043 218.354 49.7948 219.932 47.9315L224.567 42.4622L217.417 41.9167C212.889 41.5689 208.397 39.5884 205.088 36.4767C204.893 36.2936 204.692 36.0959 204.472 35.869C202.415 31.0843 199.768 26.8633 198.582 25.5747C196.909 23.7626 194.896 23.2391 189.598 23.2391C185.535 23.2391 179.293 23.5868 170.522 24.3044C159.594 25.1976 148.751 26.3618 148.297 26.4094L148.041 26.4423C147.766 26.4862 146.642 26.6693 144.973 27.0573C141.096 22.214 133.071 13.9112 120.694 9.08257C110.568 5.1252 97.8577 2.00616 86.6884 0.728522C82.4675 0.245291 78.3966 1.46086e-05 74.5893 1.49415e-05C65.2103 1.57614e-05 57.0612 1.47534 50.3252 4.38937C47.1623 3.31674 43.56 2.73467 39.793 2.69074C38.3323 2.36859 34.2468 1.57052 29.6195 1.57052C26.2479 1.57052 23.213 1.98786 20.5955 2.81155C17.6668 3.37166 5.99241 6.18685 2.42308 15.9174C1.84101 17.5098 0.731765 21.7747 0.241212 26.435C-0.41774 32.7207 0.263179 37.1466 2.32424 39.9691C3.88376 42.1034 6.27063 43.3298 8.87349 43.3298C8.99064 43.3298 9.11144 43.3261 9.23225 43.3225L12.7503 43.1724C14.0353 44.2304 15.2727 44.9845 16.2464 45.497C18.2123 48.7515 20.9726 51.0798 24.465 52.427C25.2009 52.7125 26.8336 53.3422 28.7592 53.4594L27.7561 93.4175C23.2753 94.9258 19.2959 98.0887 16.1146 102.698C11.9706 108.709 9.68986 116.602 9.68986 124.919C9.68986 133.237 11.9706 141.129 16.1146 147.14C20.687 153.774 26.9727 157.427 33.8075 157.427C40.6423 157.427 46.9243 153.774 51.5004 147.14C55.6445 141.129 57.9252 133.237 57.9252 124.919C57.9252 116.602 55.6445 108.709 51.5004 102.698C48.0848 97.7446 43.6442 94.4206 38.7497 93.0807L39.6246 58.1965C39.7637 58.2002 39.8992 58.2002 40.0383 58.2002C41.1146 58.2002 42.2348 58.0867 43.3623 57.867C46.6717 57.219 49.9811 55.6339 52.8695 53.3349C58.2473 55.2495 71.3458 59.3021 85.8538 59.3021C89.6647 59.3021 93.3475 59.0202 96.8363 58.4601C98.3812 60.8616 100.801 64.7348 103.741 69.8453L77.3203 69.8453L77.2471 81.5307L77.2435 81.5417L77.2435 82.2043L76.8005 154.019C75.5558 154.572 74.4246 155.381 73.4838 156.417C71.009 159.141 70.2879 162.97 71.6534 166.173C72.3892 167.901 74.8822 171.939 82.1124 172.137C82.5004 172.148 82.8885 172.151 83.2729 172.151C85.063 172.151 86.8459 172.034 88.6031 171.8C88.841 172.221 89.1193 172.616 89.4414 172.986C90.5031 174.216 92.4799 175.684 95.8625 175.684C95.8955 175.684 95.9284 175.684 95.9614 175.684C97.6856 177.17 100.406 178.836 104.158 179.191C104.63 179.235 105.113 179.257 105.589 179.257C107.431 179.257 109.312 178.924 111.212 178.261C112.435 178.807 113.768 179.107 115.152 179.14C115.232 179.144 115.32 179.144 115.408 179.144C119.819 179.144 124.205 176.585 128.781 171.328L135.909 171.328C141.078 197.898 126.141 230.124 125.988 230.461L122.283 238.295L130.955 238.295L190.521 238.295L190.521 238.303ZM126.471 117.722C122.524 118.348 119.105 119.56 116.693 120.596C115.843 118.816 115.064 115.84 114.712 114.5C113.585 110.206 112.421 105.766 107.947 104.942C107.515 104.836 107.054 104.759 106.585 104.715L106.585 74.9009C112.541 85.6968 119.903 100.465 126.471 117.722Z" fill="white"/>
<path d="M139.167 69.0335C137.219 68.4661 135.209 68.1586 133.236 68.1586C132.057 68.1586 130.908 68.2538 129.795 68.4331C128.865 66.211 127.935 63.9889 127.005 61.7668C125.629 58.4793 124.23 55.0674 124.315 51.5054C124.435 46.4681 127.602 41.87 131.677 38.9048C135.751 35.9395 140.66 34.369 145.54 33.0987C155.849 30.4153 166.451 28.8631 177.093 28.4677C179.78 28.3688 182.467 28.3432 185.154 28.3908C187.567 28.4347 190.488 28.1602 192.831 28.7752C194.427 29.1925 194.929 30.6056 195.675 31.9491C196.869 34.0907 197.909 36.2946 198.71 38.6155C200.519 43.8323 201.229 49.4334 200.713 54.9356C200.149 54.9063 199.589 54.8807 199.025 54.8514C197.832 52.9112 196.642 50.9746 195.448 49.0343C194.998 48.3022 194.427 47.4894 193.574 47.4089C192.736 47.3284 191.996 48.0239 191.66 48.8C191.326 49.5761 191.275 50.4401 191.059 51.2528C190.528 53.2663 189.009 54.91 187.226 55.9826C185.443 57.0552 183.408 57.6227 181.38 58.0876C169.101 60.8808 156.04 60.1487 144.145 56.0009C142.868 60.4745 141.195 64.8382 139.167 69.0335Z" fill="#252527"/>
<path d="M159.257 81.0986C157.852 81.0986 156.713 78.522 156.713 75.3437C156.713 72.1654 157.852 69.5889 159.257 69.5889C160.663 69.5889 161.802 72.1654 161.802 75.3437C161.802 78.522 160.663 81.0986 159.257 81.0986Z" fill="#252527"/>
<path d="M190.906 81.0986C189.501 81.0986 188.362 78.522 188.362 75.3437C188.362 72.1654 189.501 69.5889 190.906 69.5889C192.311 69.5889 193.45 72.1654 193.45 75.3437C193.45 78.522 192.311 81.0986 190.906 81.0986Z" fill="#252527"/>
<path d="M138.267 93.2382C151.552 124.242 171.313 154.77 192.744 100.904C192.744 100.904 200.768 75.128 198.696 56.9775" stroke="#252527" stroke-width="4.5" stroke-miterlimit="10" stroke-linecap="round"/>
<path d="M140.06 68.3726L146.979 54.7323C156.757 64.4226 183.613 58.3053 183.613 58.3053C189.415 56.6469 192.066 44.8773 192.066 44.8773C194.716 45.5399 198.696 56.9764 198.696 56.9764C207.811 50.8445 196.539 31.4493 194.552 29.2931C192.564 27.1368 148.886 31.863 148.886 31.863C148.886 31.863 115.32 37.0834 125.017 59.4621C126.05 61.8417 127.28 65.0595 128.693 68.8156" stroke="#252527" stroke-width="4.5" stroke-miterlimit="10"/>
<path d="M140.247 68.8817C133.317 65.8176 125.435 68.4607 122.642 74.7793C119.849 81.0979 123.202 88.7052 130.136 91.7693C132.706 92.9042 135.404 93.2556 137.93 92.9261" stroke="#252527" stroke-width="4.5" stroke-miterlimit="10" stroke-linecap="round"/>
<path d="M196.621 31.8276C198.448 34.3939 200.289 36.9821 202.584 39.1383C206.523 42.8431 211.751 45.1495 217.144 45.5631C215.888 47.0458 214.127 48.0269 212.286 48.6456C210.444 49.2642 208.511 49.5425 206.589 49.8207C204.55 50.1136 202.515 50.4064 200.476 50.703" fill="#252527"/>
<path d="M179.733 79.9297C179.733 79.9297 193.16 99.2224 181.226 100.218" stroke="#252527" stroke-width="4.5" stroke-miterlimit="10" stroke-linecap="round"/>
<path d="M188.398 34.2729C188.398 34.2729 190.884 44.9626 186.41 50.5601" stroke="white" stroke-width="3" stroke-miterlimit="10" stroke-linecap="round"/>
<path d="M181.161 42.2417C181.161 42.2417 181.783 50.6324 176.683 52.3749" stroke="white" stroke-width="3" stroke-miterlimit="10" stroke-linecap="round"/>
<path d="M155.893 42.4136C155.893 42.4136 154.322 52.1331 165.964 54.8458" stroke="white" stroke-width="3" stroke-miterlimit="10" stroke-linecap="round"/>
<path d="M185.458 85.7919L203.305 85.7919C208.207 85.7919 212.183 81.8162 212.183 76.9143L212.183 68.3662C212.183 66.4516 210.63 64.8994 208.716 64.8994L182.94 64.8994C181.025 64.8994 179.473 66.4516 179.473 68.3662L179.473 79.8064C179.477 83.1121 182.156 85.7919 185.458 85.7919Z" stroke="#252527" stroke-width="4.5" stroke-miterlimit="10"/>
<path d="M164.445 85.7919L146.599 85.7919C141.697 85.7919 137.721 81.8162 137.721 76.9143L137.721 68.3662C137.721 66.4516 139.273 64.8994 141.188 64.8994L166.964 64.8994C168.878 64.8994 170.431 66.4516 170.431 68.3662L170.431 79.8064C170.431 83.1121 167.751 85.7919 164.445 85.7919Z" stroke="#252527" stroke-width="4.5" stroke-miterlimit="10"/>
<path d="M179.732 71.8799L170.43 71.8799" stroke="#252527" stroke-width="4.5" stroke-miterlimit="10"/>
<path d="M194.271 82.153L185.016 79.1621" stroke="#252527" stroke-width="4.5" stroke-miterlimit="10" stroke-linecap="round"/>
<path d="M195.83 68.8203L185.016 71.3133" stroke="#252527" stroke-width="4.5" stroke-miterlimit="10" stroke-linecap="round"/>
<path d="M154.194 82.153L163.445 79.1621" stroke="#252527" stroke-width="4.5" stroke-miterlimit="10" stroke-linecap="round"/>
<path d="M152.635 68.8193L163.445 71.3124" stroke="#252527" stroke-width="4.5" stroke-miterlimit="10" stroke-linecap="round"/>
<path d="M153.408 109.079C152.074 109.079 150.992 106.778 150.992 103.94C150.992 101.101 152.074 98.7998 153.408 98.7998C154.742 98.7998 155.824 101.101 155.824 103.94C155.824 106.778 154.742 109.079 153.408 109.079Z" fill="#252527"/>
<path d="M102.042 75.7637H82.9609V124.861V156.377L84.1401 159.593L87.3561 158.628L93.1448 154.662L98.3976 150.588L102.042 145.014L102.686 131.4L100.542 116.821L101.506 110.603L102.042 75.7637Z" fill="#F05023"/>
<path d="M93.8643 165.019C93.8643 165.019 89.8228 172.861 100.384 169.24C110.949 165.623 114.566 161.486 114.566 161.486" stroke="#252527" stroke-width="4.5" stroke-miterlimit="10" stroke-linecap="round"/>
<path d="M98.2824 170.196C98.2824 170.196 105.125 180.245 118.695 166.671" stroke="#252527" stroke-width="4.5" stroke-miterlimit="10" stroke-linecap="round"/>
<path d="M111.824 172.008C111.824 172.008 116.375 178.462 126.193 165.839C136.011 153.217 124.311 139.261 124.311 139.261C124.311 139.261 122.316 129.183 115.858 127.115C109.401 125.046 109.657 110.575 106.813 110.319C106.813 110.319 98.5427 107.734 101.127 123.238C103.712 138.742 102.355 130.325 102.355 130.325C102.355 130.325 103.972 147.528 97.5103 150.628C91.0489 153.729 87.9482 160.707 82.2629 158.898C76.5776 157.09 72.7007 166.392 82.2629 166.652C91.825 166.912 100.611 163.551 110.946 155.025" stroke="#252527" stroke-width="4.5" stroke-miterlimit="10" stroke-linecap="round"/>
<path d="M101.095 114.002L101.095 75.3438L82.7795 75.3438L82.7319 83.4489L82.2633 158.903" stroke="#252527" stroke-width="4.5" stroke-miterlimit="10" stroke-linecap="round"/>
<path d="M91.6787 82.1523L82.7389 82.1523" stroke="#252527" stroke-width="4.5" stroke-miterlimit="10" stroke-linecap="round"/>
<path d="M91.6787 90.0752L82.7389 90.0752" stroke="#252527" stroke-width="4.5" stroke-miterlimit="10" stroke-linecap="round"/>
<path d="M91.6787 97.9941L82.7389 97.9941" stroke="#252527" stroke-width="4.5" stroke-miterlimit="10" stroke-linecap="round"/>
<path d="M91.6787 105.915L82.7389 105.915" stroke="#252527" stroke-width="4.5" stroke-miterlimit="10" stroke-linecap="round"/>
<path d="M91.6787 113.835L82.7389 113.835" stroke="#252527" stroke-width="4.5" stroke-miterlimit="10" stroke-linecap="round"/>
<path d="M91.6787 121.752L82.7389 121.752" stroke="#252527" stroke-width="4.5" stroke-miterlimit="10" stroke-linecap="round"/>
<path d="M91.6787 129.675L82.7389 129.675" stroke="#252527" stroke-width="4.5" stroke-miterlimit="10" stroke-linecap="round"/>
<path d="M91.6787 137.592L82.7389 137.592" stroke="#252527" stroke-width="4.5" stroke-miterlimit="10" stroke-linecap="round"/>
<path d="M91.6787 145.514L82.7389 145.514" stroke="#252527" stroke-width="4.5" stroke-miterlimit="10" stroke-linecap="round"/>
<path d="M91.6787 153.433L82.7389 153.433" stroke="#252527" stroke-width="4.5" stroke-miterlimit="10" stroke-linecap="round"/>
<path d="M46.6024 31.8274C46.6024 31.8274 40.9171 38.8782 41.4333 41.265C41.9494 43.6519 32.1311 45.8667 35.2318 50.7027C38.3325 55.5387 54.389 52.2512 57.713 34.2728C59.2579 25.9188 62.6186 22.602 55.3884 13.9368C47.5432 4.53576 21.7965 6.83111 19.4682 19.2341C17.1435 31.637 17.6597 43.9155 26.4458 47.3091C35.2318 50.7027 31.0987 40.9356 30.7107 31.8274C30.3226 22.7192 46.9904 21.9394 46.6024 31.8274Z" stroke="#252527" stroke-width="4.5" stroke-miterlimit="10" stroke-linecap="round"/>
<path d="M39.0684 8.15919C39.0684 8.15919 26.962 5.14632 19.7245 9.10369C15.1594 11.6004 10.1623 30.0803 12.875 34.9273C15.5877 39.7743 20.2077 41.2642 20.2077 41.2642" stroke="#252527" stroke-width="4.5" stroke-miterlimit="10" stroke-linecap="round"/>
<path d="M21.9023 8.15967C21.9023 8.15967 10.4256 10.0596 7.58111 17.8097C5.98132 22.1771 3.19176 38.0834 9.00153 37.8382C14.8113 37.5929 14.8113 37.5929 14.8113 37.5929" stroke="#252527" stroke-width="4.5" stroke-miterlimit="10" stroke-linecap="round"/>
<path d="M34.6992 47.3096L33.4069 96.8838" stroke="#252527" stroke-width="4.5" stroke-miterlimit="10" stroke-linecap="round"/>
<path d="M33.8121 152.028C23.525 152.028 15.1857 139.932 15.1857 125.011C15.1857 110.09 23.525 97.9941 33.8121 97.9941C44.0992 97.9941 52.4385 110.09 52.4385 125.011C52.4385 139.932 44.0992 152.028 33.8121 152.028Z" stroke="#252527" stroke-width="4.5" stroke-miterlimit="10" stroke-linecap="round"/>
<path d="M45.5371 104.023C45.5371 104.023 42.0483 118.114 43.0038 125.066C43.2051 126.534 42.0959 127.852 40.6169 127.852L15.2875 127.852" stroke="#252527" stroke-width="4.5" stroke-miterlimit="10" stroke-linecap="round"/>
<path d="M28.9795 98.9131C28.9795 98.9131 22.2801 120.358 25.5895 127.852" stroke="#252527" stroke-width="4.5" stroke-miterlimit="10" stroke-linecap="round"/>
<path d="M115.855 127.12C115.855 127.12 139.098 113.425 150.992 134.742C162.886 156.059 145.482 127.764 145.482 127.764C145.482 127.764 171.093 129.979 185.016 137.594" stroke="#252527" stroke-width="4.5" stroke-miterlimit="10" stroke-linecap="round"/>
<path d="M142.773 33.328C142.773 33.328 134.591 20.3942 118.7 14.1927C102.808 7.99125 70.2996 0.314463 50.5054 10.3562" stroke="#252527" stroke-width="4.5" stroke-miterlimit="10" stroke-linecap="round"/>
<path d="M52.4382 47.3096C52.4382 47.3096 81.8751 59.4013 105.521 50.5604" stroke="#252527" stroke-width="4.5" stroke-miterlimit="10" stroke-linecap="round"/>
<path d="M99.3917 52.376C99.3917 52.376 119.515 81.2454 134.225 122.92" stroke="#252527" stroke-width="4.5" stroke-miterlimit="10" stroke-linecap="round"/>
<path d="M126.193 165.84L230.01 165.84C235.253 165.84 239.66 161.787 239.964 156.556C240.616 145.328 234.513 124.446 194.27 96.8838" stroke="#252527" stroke-width="4.5" stroke-miterlimit="10" stroke-linecap="round"/>
<path d="M217.144 165.84C217.144 165.84 184.921 195.079 185.016 232.808L130.953 232.808C130.953 232.808 148.616 195.515 140.247 165.84" stroke="#252527" stroke-width="4.5" stroke-miterlimit="10" stroke-linecap="round"/>
</g>
<defs>
<clipPath id="clip0_478_6140">
<rect width="245.5" height="238.303" fill="white" transform="matrix(-1 8.74228e-08 8.74228e-08 1 245.5 0)"/>
</clipPath>
</defs>
</svg>
