<svg width="246" height="343" viewBox="0 0 246 343" fill="none" xmlns="http://www.w3.org/2000/svg">
<g clip-path="url(#clip0_478_5944)">
<path d="M34.5658 338.386C33.7495 336.026 14.6578 280.217 21.5207 251.052C25.2385 235.248 25.6447 224.435 25.3932 218.396C24.9174 218.427 24.4454 218.447 23.9773 218.447C20.4336 218.447 17.2343 217.518 14.4759 215.684C6.49106 210.384 -1.37775 189.529 0.204521 177.865C1.21424 170.421 5.3885 167.365 8.34801 166.119C6.75026 162.096 4.67667 156.893 3.7598 154.61L1.16781 148.15L43.6996 139.499C43.955 137.596 44.5391 135.178 45.8003 132.582C47.8662 128.331 52.2145 122.744 61.3174 118.86L58.9498 113.734C57.8898 111.44 57.7854 108.867 58.6597 106.496C59.534 104.124 61.2749 102.233 63.5728 101.173L67.7007 99.2654C67.6736 99.1958 67.6465 99.1262 67.6194 99.0565C65.5768 98.1242 63.8011 96.6967 62.3194 94.7856C60.2651 95.3968 58.1374 96.0235 55.8007 96.2789C55.116 96.3524 54.4312 96.391 53.7736 96.391C51.553 96.391 49.5181 95.9694 47.7269 95.1376L40.8523 91.946L47.4677 88.2514C51.6574 85.9109 55.0889 82.019 56.8801 77.5662C56.9845 77.3032 57.089 77.0246 57.2012 76.7113C57.0813 72.2739 57.4913 68.0184 57.9556 65.6121L21.749 58.3894L30.8403 12.7975C32.3181 5.38128 38.8754 0 46.4348 0C47.4754 0 48.5238 0.104453 49.5529 0.309491L216.349 33.5798C220.512 34.4116 224.102 36.814 226.466 40.3499C228.83 43.8859 229.669 48.1259 228.841 52.2885L219.746 97.8805L162.958 86.5531C162.966 86.7078 162.97 86.8587 162.97 87.0135C163.063 92.1704 161.175 97.2073 157.658 101.204C156.045 103.034 154.13 104.581 152.029 105.761C152.049 107.065 152.06 108.341 152.06 109.579C162.463 112.376 180.603 117.649 187.412 119.638L191.354 116.709C193.52 114.032 198.476 108.798 204.136 108.67C204.217 108.67 204.302 108.666 204.391 108.666C209.119 108.666 213.305 111.591 214.566 115.781C215.812 119.909 213.997 124.114 209.827 126.748C208.647 127.495 207.587 128.141 206.662 128.694C213.823 133.789 221.514 141.623 228.845 151.357C238.265 163.86 244.768 176.495 245.41 183.544C246.211 192.349 241.921 202.953 234.47 210.555C229.499 215.63 220.872 221.677 208.005 221.677C207.034 221.677 206.039 221.642 205.045 221.573C183.806 220.075 167.438 195.444 161.329 184.817C160.033 188.472 158.467 193.521 157.229 199.421C154.795 210.996 153.112 228.408 158.888 245.612L161.457 253.264H105.873C100.704 286.964 111.351 330.819 111.463 331.272L113.138 338.053L36.001 342.541L34.5658 338.386Z" fill="white"/>
<path d="M241.554 183.903C240.982 177.617 234.629 165.477 225.751 153.693C216.799 141.812 207.332 132.895 199.278 128.659L200.372 127.796C201.061 127.448 203.572 126.129 207.754 123.487C210.431 121.796 211.592 119.336 210.856 116.906C210.087 114.357 207.382 112.542 204.384 112.542C204.33 112.542 204.272 112.542 204.218 112.542C199.703 112.643 195.111 118.171 194.059 119.517L188.167 123.893C183.099 122.411 158.541 115.239 148.165 112.554C148.208 109.649 148.188 106.581 148.111 103.354C150.633 102.352 152.912 100.743 154.753 98.6462C157.632 95.3772 159.175 91.2687 159.102 87.0789C159.067 85.1485 158.692 83.307 158.003 81.6164L216.706 93.3268L225.043 51.5262C226.343 45.0152 222.103 38.6629 215.592 37.3669L48.7953 4.09662C42.2844 2.79676 35.9321 7.03679 34.6361 13.5477L26.2953 55.3522L64.56 62.9851C62.3472 64.2346 62.1499 64.842 61.9642 65.4146C61.5966 66.5558 60.8577 71.585 61.086 77.2836C60.8964 77.8638 60.6953 78.4403 60.4631 79.009C58.3276 84.309 54.3352 88.8392 49.3485 91.6285C51.2093 92.4912 53.3332 92.6537 55.3759 92.4331C57.4185 92.2126 59.3954 91.6207 61.3607 91.0366C62.2388 90.7735 63.1132 90.5143 63.9913 90.2512C64.15 90.553 64.3163 90.8509 64.4943 91.141C66.0611 93.6982 68.1192 95.3424 70.6261 96.0542C71.2296 97.7603 71.9375 99.4857 72.719 101.207L65.1945 104.685C63.8366 105.312 62.8075 106.43 62.2891 107.834C61.7746 109.239 61.8326 110.759 62.4632 112.113L66.2545 120.314C66.3667 120.554 66.4866 120.79 66.6143 121.022C55.9794 124.419 51.3177 130.09 49.2828 134.276C47.391 138.164 47.3446 141.53 47.3987 142.698L6.48788 151.016L7.35058 153.171C8.59629 156.273 11.9388 164.684 13.436 168.452C12.4843 168.781 11.521 169.11 10.5306 169.431C8.01212 170.255 4.83984 172.479 4.03903 178.387C2.55347 189.327 10.3875 208.326 16.616 212.462C18.8327 213.932 21.3512 214.578 23.978 214.578C25.599 214.578 27.2586 214.33 28.9144 213.885C29.4947 218.566 30.1872 231.112 25.2895 251.941C18.6818 280.016 37.4254 334.807 38.2262 337.125L38.7059 338.51L108.268 334.467L107.707 332.208C107.587 331.72 96.0546 284.352 102.608 249.407H156.08L155.225 246.858C149.171 228.83 150.916 210.686 153.446 198.639C155.504 188.844 158.398 181.377 159.756 178.174C160.711 178.568 161.705 178.959 162.734 179.338C165.481 184.619 182.786 216.133 205.32 217.723C206.237 217.789 207.135 217.82 208.009 217.82C219.449 217.82 227.155 212.508 231.708 207.858C238.289 201.13 242.247 191.505 241.554 183.903Z" fill="white"/>
<path d="M114.016 147.054C115.842 151.279 113.823 156.057 112.353 160.417C110.751 165.159 109.791 170.111 109.432 175.102C109.165 178.816 109.223 182.549 109.285 186.275C109.47 197.641 109.656 209.007 109.842 220.369C109.873 222.203 109.904 224.048 110.325 225.831C110.712 227.464 111.412 229.004 112.066 230.551C113.146 233.104 114.097 235.712 114.925 238.354C115.823 241.229 116.562 244.374 115.509 247.194C111.115 247.952 106.654 248.339 102.193 248.351C102.205 242.548 105.451 236.888 104.372 231.186C104.004 229.251 103.153 227.445 102.611 225.549C101.304 220.988 101.826 216.102 100.994 211.428C100.433 208.291 99.2727 205.297 98.5299 202.198C97.849 199.362 97.524 196.457 97.1991 193.559C96.5762 188.015 95.9572 182.468 95.3344 176.924C95.0907 174.754 94.8469 172.552 95.1874 170.394C95.5007 168.398 96.2977 166.513 96.9515 164.602C99.2804 157.813 99.8375 150.59 99.9613 143.46C99.9922 141.754 99.7408 139.859 99.9884 138.176C100.259 136.33 100.607 136.446 102.232 137.429C104.364 138.713 105.931 140.76 107.598 142.555C108.515 143.542 109.439 144.543 110.523 145.348C110.987 145.704 113.904 146.795 114.016 147.054Z" fill="#F05023"/>
<path d="M134.552 79.5703C136.169 78.1621 137.96 76.9744 139.852 76.1001C140.981 75.5778 142.126 75.16 143.275 74.8351C143.182 72.2895 143.09 69.7478 142.997 67.2022C142.858 63.4381 142.691 59.5462 141.028 56.165C138.676 51.3872 133.604 48.3813 128.381 47.3445C123.158 46.3077 117.75 46.977 112.508 47.9209C101.432 49.9172 90.5728 53.132 80.1894 57.4726C77.5703 58.5674 74.9784 59.7358 72.4212 60.9737C70.1232 62.084 67.2024 63.117 65.2255 64.7457C63.8792 65.856 64.0262 67.4344 63.9024 69.0515C63.709 71.6357 63.6858 74.2083 63.945 76.7926C64.5253 82.5994 66.3281 88.2863 69.2566 93.3349C69.7828 93.0602 70.3089 92.7817 70.8389 92.507C71.1213 90.1201 71.4037 87.7292 71.69 85.3423C71.7983 84.4409 71.984 83.408 72.7694 82.9515C73.5392 82.5027 74.5567 82.8431 75.2221 83.4389C75.8875 84.0347 76.3169 84.8394 76.8856 85.528C78.286 87.2224 80.4718 88.1277 82.6576 88.3676C84.8434 88.6074 87.0485 88.2476 89.1995 87.7911C102.217 85.0251 114.423 78.5335 123.99 69.2797C127.209 72.9975 130.749 76.4405 134.552 79.5703Z" fill="#252527"/>
<path d="M120.634 100.048C121.982 99.4248 121.932 96.4483 120.523 93.3996C119.113 90.3509 116.878 88.3845 115.53 89.0076C114.183 89.6306 114.232 92.6072 115.642 95.6559C117.051 98.7046 119.286 100.671 120.634 100.048Z" fill="#252527"/>
<path d="M90.2726 114.078C91.6205 113.455 91.5707 110.479 90.1614 107.43C88.7521 104.381 86.5169 102.415 85.1691 103.038C83.8212 103.661 83.871 106.637 85.2803 109.686C86.6896 112.735 88.9248 114.701 90.2726 114.078Z" fill="#252527"/>
<path d="M146.149 102.386C147.151 138.016 141.735 176.061 97.2922 133.896C97.2922 133.896 78.1657 112.731 72.1035 94.4014" stroke="#252527" stroke-width="4.5" stroke-miterlimit="10" stroke-linecap="round"/>
<path d="M133.406 79.3291L120.721 69.3131C115.638 82.9424 87.1646 88.9813 87.1646 88.9813C80.8665 89.9639 73.1021 79.8513 73.1021 79.8513C70.8506 81.6618 72.1079 94.3974 72.1079 94.3974C60.6451 92.5559 62.858 68.9572 63.8096 66.0055C64.7613 63.0576 108.755 48.2213 108.755 48.2213C108.755 48.2213 143.268 38.3447 143.89 64.1098C143.956 66.8527 144.204 70.4815 144.513 74.7138" stroke="#252527" stroke-width="4.5" stroke-miterlimit="10"/>
<path d="M62.9431 69.3525C62.3318 72.6254 61.709 75.9215 60.4671 79.0087C58.3317 84.3087 54.3392 88.8389 49.3525 91.6282C51.2134 92.4909 53.3372 92.6534 55.3799 92.4328C57.4187 92.2085 59.3994 91.6204 61.3647 91.0363C63.4499 90.4134 65.5351 89.7944 67.6203 89.1716" fill="#252527"/>
<path d="M100.472 108.008C100.472 108.008 96.1472 132.469 108.035 128.132" stroke="#252527" stroke-width="4.5" stroke-miterlimit="10" stroke-linecap="round"/>
<path d="M71.918 68.0518C71.918 68.0518 74.274 79.4101 81.048 82.7913" stroke="white" stroke-width="3" stroke-miterlimit="10" stroke-linecap="round"/>
<path d="M82.3945 72.4863C82.3945 72.4863 85.5204 80.8116 91.1802 80.2197" stroke="white" stroke-width="3" stroke-miterlimit="10" stroke-linecap="round"/>
<path d="M106.705 61.4492C106.705 61.4492 112.523 70.0763 102.558 77.8406" stroke="white" stroke-width="3" stroke-miterlimit="10" stroke-linecap="round"/>
<path d="M97.5791 116.166L80.4603 124.078C75.7561 126.252 70.1814 124.202 68.011 119.497L64.2198 111.296C63.3725 109.458 64.1734 107.284 66.0071 106.437L90.7316 95.0088C92.5692 94.1616 94.7433 94.9624 95.5906 96.7962L100.662 107.771C102.132 110.944 100.747 114.7 97.5791 116.166Z" stroke="#252527" stroke-width="4.5" stroke-miterlimit="10"/>
<path d="M96.9014 100.282L105.826 96.1582" stroke="#252527" stroke-width="4.5" stroke-miterlimit="10"/>
<path d="M87.5166 116.585L95.0643 109.613" stroke="#252527" stroke-width="4" stroke-miterlimit="10" stroke-linecap="round"/>
<path d="M80.1074 104.487L91.5857 102.081" stroke="#252527" stroke-width="4" stroke-miterlimit="10" stroke-linecap="round"/>
<path d="M125.959 98.8164L115.754 100.051" stroke="#252527" stroke-width="4" stroke-miterlimit="10" stroke-linecap="round"/>
<path d="M121.541 85.333L112.271 92.5171" stroke="#252527" stroke-width="4" stroke-miterlimit="10" stroke-linecap="round"/>
<path d="M109.896 136.497C109.896 136.497 126.288 145.461 139.306 116.81" stroke="#252527" stroke-width="4.5" stroke-miterlimit="10" stroke-linecap="round"/>
<path d="M129.677 130.625C129.677 130.625 123.197 102.662 135.484 121.158" stroke="#252527" stroke-width="4.5" stroke-miterlimit="10" stroke-linecap="round"/>
<path d="M13.8301 182.812C13.8301 182.812 32.2603 174.51 34.7904 177.117C37.3205 179.725 18.8168 191.543 18.8168 191.543" stroke="#252527" stroke-width="4.5" stroke-miterlimit="10" stroke-linecap="round"/>
<path d="M20.8555 191.246C20.8555 191.246 26.3489 196.279 31.3704 191.478C36.3919 186.677 40.6745 183.462 39.9782 190.813C39.2818 198.163 29.1537 202.148 29.1537 202.148" stroke="#252527" stroke-width="4.5" stroke-miterlimit="10" stroke-linecap="round"/>
<path d="M33.8309 199.572C33.8309 199.572 46.5046 198.392 40.9144 204.295C35.3242 210.199 24.7474 215.541 17.6871 210.853C10.6268 206.164 -1.16093 175.292 11.1297 171.272C23.4243 167.249 33.2042 162.402 32.4885 168.135C32.0668 171.493 12.1395 183.865 12.1395 183.865" stroke="#252527" stroke-width="4.5" stroke-miterlimit="10" stroke-linecap="round"/>
<path d="M15.9814 169.613C15.9814 169.613 10.7858 156.529 9.14551 152.448L81.0442 137.824C81.0442 137.824 109.475 209.781 101.362 245.825C93.2497 281.869 105.823 332.664 105.823 332.664L40.0482 336.487C40.0482 336.487 20.6122 280.233 27.1656 252.379C33.7191 224.524 30.4501 211.317 30.4501 211.317" stroke="#252527" stroke-width="4.5" stroke-miterlimit="10" stroke-linecap="round"/>
<path d="M215.185 91.0549L28.5693 53.8347L36.531 13.9297C37.622 8.45556 42.9452 4.90414 48.4155 5.99897L215.212 39.2693C220.686 40.3602 224.237 45.6835 223.143 51.1537L215.185 91.0549Z" fill="white" stroke="#252527" stroke-width="4.5" stroke-miterlimit="10" stroke-linecap="round"/>
<path d="M190.495 39.9055L105.218 22.897L103.508 31.4676L188.786 48.476L190.495 39.9055Z" stroke="#252527" stroke-width="4.5" stroke-miterlimit="10" stroke-linecap="round"/>
<path d="M62.1887 46.3385L53.3525 44.5762L51.9103 51.8075L60.7464 53.5699L62.1887 46.3385Z" stroke="#252527" stroke-width="4.5" stroke-miterlimit="10" stroke-linecap="round"/>
<path d="M77.053 49.3034L68.2168 47.541L66.7745 54.7723L75.6107 56.5347L77.053 49.3034Z" stroke="#252527" stroke-width="4.5" stroke-miterlimit="10" stroke-linecap="round"/>
<path d="M91.9162 52.2663L83.0801 50.5039L81.6378 57.7352L90.474 59.4976L91.9162 52.2663Z" stroke="#252527" stroke-width="4.5" stroke-miterlimit="10" stroke-linecap="round"/>
<path d="M106.78 55.234L97.9434 53.4717L96.5011 60.703L105.337 62.4654L106.78 55.234Z" stroke="#252527" stroke-width="4.5" stroke-miterlimit="10" stroke-linecap="round"/>
<path d="M121.64 58.196L112.804 56.4336L111.361 63.6649L120.198 65.4273L121.64 58.196Z" stroke="#252527" stroke-width="4.5" stroke-miterlimit="10" stroke-linecap="round"/>
<path d="M136.503 61.1598L127.667 59.3975L126.225 66.6288L135.061 68.3911L136.503 61.1598Z" stroke="#252527" stroke-width="4.5" stroke-miterlimit="10" stroke-linecap="round"/>
<path d="M151.366 64.1266L142.53 62.3643L141.088 69.5956L149.924 71.3579L151.366 64.1266Z" stroke="#252527" stroke-width="4.5" stroke-miterlimit="10" stroke-linecap="round"/>
<path d="M166.23 67.0895L157.394 65.3271L155.951 72.5585L164.787 74.3208L166.23 67.0895Z" stroke="#252527" stroke-width="4.5" stroke-miterlimit="10" stroke-linecap="round"/>
<path d="M181.094 70.0544L172.258 68.292L170.816 75.5233L179.652 77.2857L181.094 70.0544Z" stroke="#252527" stroke-width="4.5" stroke-miterlimit="10" stroke-linecap="round"/>
<path d="M195.957 73.0212L187.121 71.2588L185.679 78.4901L194.515 80.2525L195.957 73.0212Z" stroke="#252527" stroke-width="4.5" stroke-miterlimit="10" stroke-linecap="round"/>
<path d="M64.9397 32.548L56.1035 30.7856L54.6612 38.017L63.4974 39.7793L64.9397 32.548Z" stroke="#252527" stroke-width="4.5" stroke-miterlimit="10" stroke-linecap="round"/>
<path d="M46.7873 43.2673L37.9512 41.5049L36.5089 48.7362L45.3451 50.4986L46.7873 43.2673Z" stroke="#252527" stroke-width="4.5" stroke-miterlimit="10" stroke-linecap="round"/>
<path d="M52.2912 15.6838L43.4551 13.9214L39.2622 34.9438L48.0983 36.7062L52.2912 15.6838Z" stroke="#252527" stroke-width="4.5" stroke-miterlimit="10" stroke-linecap="round"/>
<path d="M79.803 35.5109L70.9668 33.7485L69.5245 40.9798L78.3607 42.7422L79.803 35.5109Z" stroke="#252527" stroke-width="4.5" stroke-miterlimit="10" stroke-linecap="round"/>
<path d="M82.5539 21.7184L73.7178 19.9561L72.2755 27.1874L81.1117 28.9497L82.5539 21.7184Z" stroke="#252527" stroke-width="4.5" stroke-miterlimit="10" stroke-linecap="round"/>
<path d="M94.6672 38.4743L85.8311 36.7119L84.3888 43.9432L93.2249 45.7056L94.6672 38.4743Z" stroke="#252527" stroke-width="4.5" stroke-miterlimit="10" stroke-linecap="round"/>
<path d="M124.394 44.4049L115.558 42.6426L114.115 49.8739L122.952 51.6363L124.394 44.4049Z" stroke="#252527" stroke-width="4.5" stroke-miterlimit="10" stroke-linecap="round"/>
<path d="M139.258 47.3688L130.422 45.6064L128.98 52.8378L137.816 54.6001L139.258 47.3688Z" stroke="#252527" stroke-width="4.5" stroke-miterlimit="10" stroke-linecap="round"/>
<path d="M154.12 50.3356L145.284 48.5732L143.842 55.8046L152.678 57.5669L154.12 50.3356Z" stroke="#252527" stroke-width="4.5" stroke-miterlimit="10" stroke-linecap="round"/>
<path d="M168.981 53.2995L160.145 51.5371L158.702 58.7684L167.538 60.5308L168.981 53.2995Z" stroke="#252527" stroke-width="4.5" stroke-miterlimit="10" stroke-linecap="round"/>
<path d="M183.845 56.2624L175.009 54.5L173.567 61.7313L182.403 63.4937L183.845 56.2624Z" stroke="#252527" stroke-width="4.5" stroke-miterlimit="10" stroke-linecap="round"/>
<path d="M198.708 59.2243L189.872 57.4619L188.43 64.6932L197.266 66.4556L198.708 59.2243Z" stroke="#252527" stroke-width="4.5" stroke-miterlimit="10" stroke-linecap="round"/>
<path d="M210.592 75.9382L201.756 74.1758L200.314 81.4071L209.15 83.1695L210.592 75.9382Z" stroke="#252527" stroke-width="4.5" stroke-miterlimit="10" stroke-linecap="round"/>
<path d="M213.343 62.1462L204.507 60.3838L203.065 67.6151L211.901 69.3775L213.343 62.1462Z" stroke="#252527" stroke-width="4.5" stroke-miterlimit="10" stroke-linecap="round"/>
<path d="M133.448 79.9019C138.737 73.8901 147.472 72.9306 152.954 77.7548C158.436 82.579 158.591 91.3647 153.302 97.3727C151.341 99.601 148.907 101.137 146.342 101.938" fill="white"/>
<path d="M133.448 79.9019C138.737 73.8901 147.472 72.9306 152.954 77.7548C158.436 82.579 158.591 91.3647 153.302 97.3727C151.341 99.601 148.907 101.137 146.342 101.938" stroke="#252527" stroke-width="4.5" stroke-miterlimit="10" stroke-linecap="round"/>
<path d="M117.734 106.85L134.853 98.9388C139.557 96.7646 141.604 91.1899 139.433 86.4895L135.642 78.288C134.795 76.4504 132.617 75.6534 130.783 76.5007L106.058 87.9286C104.221 88.7759 103.424 90.9539 104.271 92.7876L109.343 103.763C110.805 106.931 114.566 108.312 117.734 106.85Z" stroke="#252527" stroke-width="4.5" stroke-miterlimit="10"/>
<path d="M177.934 150.378C177.934 150.378 172.019 141.909 168.858 142.285C165.698 142.66 158.645 141.167 160.193 145.035C161.744 148.904 170.719 152.846 170.719 152.846" stroke="#252527" stroke-width="4.5" stroke-miterlimit="10" stroke-linecap="round"/>
<path d="M166.197 150.699C166.197 150.699 156.927 149.414 159.094 155.442C161.26 161.469 168.82 162.657 168.82 162.657" stroke="#252527" stroke-width="4.5" stroke-miterlimit="10" stroke-linecap="round"/>
<path d="M163.094 160.374C163.094 160.374 158.382 155.252 155.84 159.828C153.302 164.405 164.104 169.02 164.104 169.02" stroke="#252527" stroke-width="4.5" stroke-miterlimit="10" stroke-linecap="round"/>
<path d="M160.018 166.822C160.018 166.822 147.701 171.035 160.158 176.246C172.615 181.457 189.107 184.889 193.386 170.873C197.664 156.857 187.072 147.297 187.072 147.297L181.149 142.902" stroke="#252527" stroke-width="4.5" stroke-miterlimit="10" stroke-linecap="round"/>
<path d="M166.572 142.342L195.428 120.914L199.328 126.156L174.31 145.894" stroke="#252527" stroke-width="4.5" stroke-miterlimit="10" stroke-linecap="round"/>
<path d="M161.767 147.22L133.441 168.714L122.636 178.235C122.048 178.753 122.616 179.697 123.347 179.418L137.309 174.134L155.836 159.824" stroke="#252527" stroke-width="4.5" stroke-miterlimit="10" stroke-linecap="round"/>
<path d="M172.232 137.653C172.232 137.653 157.469 135.874 155.248 139.324C153.028 142.775 148.304 143.692 147.809 145.708C147.318 147.723 143.414 154.462 157.651 150.346" stroke="#252527" stroke-width="4.5" stroke-miterlimit="10" stroke-linecap="round"/>
<path d="M187.075 147.298C187.075 147.298 201.397 143.975 212.318 161.314C223.239 178.653 225.97 194.314 225.97 194.314" stroke="#252527" stroke-width="4.5" stroke-miterlimit="10" stroke-linecap="round"/>
<path d="M164.104 177.771C164.104 177.771 182.201 214.148 205.452 215.788C228.702 217.428 240.718 196.058 239.627 184.077C238.536 172.096 214.268 136.462 195.614 129.088" stroke="#252527" stroke-width="4.5" stroke-miterlimit="10" stroke-linecap="round"/>
<path d="M188.546 126.02C188.546 126.02 156.657 116.658 146.254 114.066" stroke="#252527" stroke-width="4.5" stroke-miterlimit="10" stroke-linecap="round"/>
<path d="M195.428 120.913C195.428 120.913 200.209 114.569 204.26 114.476C208.31 114.383 211.541 118.801 206.716 121.85C201.892 124.898 199.323 126.155 199.323 126.155" stroke="#252527" stroke-width="4.5" stroke-miterlimit="10" stroke-linecap="round"/>
<path d="M199.328 117.343L204.052 123.498" stroke="#252527" stroke-width="4.5" stroke-miterlimit="10" stroke-linecap="round"/>
<path d="M135.801 166.928L139.306 172.096" stroke="#252527" stroke-width="4.5" stroke-miterlimit="10" stroke-linecap="round"/>
<path d="M49.352 142.903C49.352 142.903 47.7155 128.872 67.6158 122.729" stroke="#252527" stroke-width="4.5" stroke-miterlimit="10" stroke-linecap="round"/>
<path d="M158.765 175.616C158.765 175.616 141.371 211.691 153.387 247.465H113.517H99.7061" stroke="#252527" stroke-width="4.5" stroke-miterlimit="10"/>
<path d="M99.7063 136.14C99.7063 136.14 100.256 155.924 93.5049 175.615" stroke="#252527" stroke-width="4.5" stroke-miterlimit="10"/>
<path d="M115.753 148.307C115.753 148.307 99.9653 179.469 115.753 247.468" stroke="#252527" stroke-width="4.5" stroke-miterlimit="10"/>
</g>
<defs>
<clipPath id="clip0_478_5944">
<rect width="245.5" height="342.541" fill="white"/>
</clipPath>
</defs>
</svg>
