<svg width="355" height="52" viewBox="0 0 355 52" fill="none" xmlns="http://www.w3.org/2000/svg">
<g clip-path="url(#clip0_487_1081)">
<path d="M340.025 42.0988C337.372 42.0988 335.07 41.5194 333.118 40.3605C331.166 39.1712 329.657 37.5854 328.589 35.6031C327.522 33.6208 326.988 31.4251 326.988 29.0159C326.988 26.5152 327.537 24.2889 328.635 22.3372C329.763 20.3854 331.273 18.8453 333.164 17.717C335.055 16.5886 337.189 16.0244 339.568 16.0244C341.55 16.0244 343.304 16.3446 344.829 16.9851C346.353 17.595 347.634 18.4641 348.671 19.5925C349.739 20.7209 350.547 22.0322 351.096 23.5265C351.645 24.9904 351.919 26.5914 351.919 28.3297C351.919 28.8177 351.889 29.3056 351.828 29.7935C351.797 30.251 351.721 30.6474 351.599 30.9829H332.889V25.951H347.711L344.463 28.3297C344.768 27.0184 344.752 25.8595 344.417 24.8531C344.082 23.8162 343.487 23.0081 342.633 22.4287C341.81 21.8187 340.788 21.5138 339.568 21.5138C338.379 21.5138 337.357 21.8035 336.503 22.3829C335.649 22.9623 335.009 23.8162 334.582 24.9446C334.155 26.073 333.987 27.4453 334.079 29.0616C333.957 30.4645 334.124 31.6996 334.582 32.7669C335.039 33.8343 335.741 34.673 336.686 35.2829C337.632 35.8623 338.775 36.152 340.117 36.152C341.337 36.152 342.374 35.9081 343.228 35.4201C344.112 34.9322 344.798 34.2613 345.286 33.4074L350.775 36.0148C350.288 37.2347 349.51 38.302 348.442 39.2169C347.406 40.1318 346.171 40.8485 344.737 41.3669C343.304 41.8549 341.733 42.0988 340.025 42.0988Z" fill="white"/>
<path d="M313.662 42.0988C311.161 42.0988 308.904 41.5346 306.892 40.4063C304.909 39.2474 303.324 37.6769 302.134 35.6946C300.975 33.7123 300.396 31.4861 300.396 29.0159C300.396 26.5457 300.975 24.3347 302.134 22.3829C303.293 20.4006 304.879 18.8453 306.892 17.717C308.904 16.5886 311.161 16.0244 313.662 16.0244C315.522 16.0244 317.245 16.3446 318.831 16.9851C320.417 17.6255 321.774 18.5251 322.902 19.684C324.031 20.8123 324.839 22.1542 325.327 23.7095L319.38 26.2712C318.953 25.0209 318.221 24.0297 317.184 23.2978C316.178 22.5659 315.004 22.1999 313.662 22.1999C312.473 22.1999 311.405 22.4896 310.46 23.0691C309.545 23.6485 308.813 24.4567 308.264 25.4935C307.746 26.5304 307.486 27.7198 307.486 29.0616C307.486 30.4035 307.746 31.5928 308.264 32.6297C308.813 33.6666 309.545 34.4747 310.46 35.0542C311.405 35.6336 312.473 35.9233 313.662 35.9233C315.034 35.9233 316.224 35.5574 317.23 34.8254C318.236 34.0935 318.953 33.1024 319.38 31.852L325.327 34.4595C324.869 35.9233 324.076 37.2347 322.948 38.3935C321.82 39.5524 320.463 40.4673 318.877 41.1382C317.291 41.7786 315.553 42.0988 313.662 42.0988Z" fill="white"/>
<path d="M275.391 41.5499V16.5734H281.795V21.5138L281.429 20.4159C282.008 18.9216 282.938 17.8237 284.219 17.1223C285.531 16.3904 287.056 16.0244 288.794 16.0244C290.685 16.0244 292.331 16.4209 293.734 17.2138C295.168 18.0067 296.281 19.1198 297.074 20.5531C297.866 21.956 298.263 23.6028 298.263 25.4935V41.5499H291.401V26.9574C291.401 25.9815 291.203 25.1428 290.807 24.4414C290.441 23.74 289.907 23.1911 289.206 22.7946C288.535 22.3982 287.742 22.1999 286.827 22.1999C285.942 22.1999 285.149 22.3982 284.448 22.7946C283.747 23.1911 283.198 23.74 282.801 24.4414C282.435 25.1428 282.252 25.9815 282.252 26.9574V41.5499H275.391Z" fill="white"/>
<path d="M264.88 41.5514V16.5749H271.742V41.5514H264.88ZM264.88 14.3334V7.47168H271.742V14.3334H264.88Z" fill="white"/>
<path d="M247.45 41.5508L237.615 16.5742H245.025L251.841 35.4667H249.005L255.821 16.5742H263.232L253.397 41.5508H247.45Z" fill="white"/>
<path d="M210.523 51.7061C209.791 51.7061 209.074 51.6451 208.373 51.5231C207.702 51.4011 207.107 51.2029 206.589 50.9284V45.3018C207.016 45.4238 207.519 45.5305 208.098 45.622C208.678 45.7135 209.211 45.7593 209.699 45.7593C211.041 45.7593 212.002 45.4391 212.581 44.7986C213.161 44.1582 213.633 43.4263 213.999 42.6029L215.692 38.7146L215.6 44.4327L204.622 16.5742H211.986L219.26 36.3816H216.515L223.789 16.5742H231.153L220.449 43.8837C219.778 45.622 218.955 47.0706 217.979 48.2295C217.003 49.3883 215.89 50.2575 214.64 50.8369C213.42 51.4164 212.047 51.7061 210.523 51.7061Z" fill="white"/>
<path d="M191.672 42.0995C189.964 42.0995 188.378 41.7945 186.914 41.1846C185.481 40.5442 184.322 39.614 183.438 38.3942L184.078 36.9761V41.5505H177.674V6.92188H184.536V21.3314L183.483 19.9591C184.307 18.7087 185.42 17.7481 186.823 17.0772C188.256 16.3758 189.888 16.0251 191.717 16.0251C194.096 16.0251 196.246 16.6045 198.167 17.7633C200.089 18.9222 201.614 20.4928 202.742 22.475C203.87 24.4268 204.434 26.6225 204.434 29.0623C204.434 31.4715 203.87 33.6672 202.742 35.6495C201.644 37.6317 200.134 39.2023 198.213 40.3612C196.292 41.52 194.111 42.0995 191.672 42.0995ZM190.848 35.924C192.129 35.924 193.257 35.6342 194.233 35.0548C195.209 34.4754 195.972 33.6672 196.521 32.6303C197.07 31.5935 197.344 30.4041 197.344 29.0623C197.344 27.7204 197.07 26.5463 196.521 25.5399C195.972 24.503 195.209 23.6949 194.233 23.1155C193.257 22.5055 192.129 22.2006 190.848 22.2006C189.628 22.2006 188.531 22.4903 187.555 23.0697C186.609 23.6491 185.862 24.4573 185.313 25.4942C184.795 26.5311 184.536 27.7204 184.536 29.0623C184.536 30.4041 184.795 31.5935 185.313 32.6303C185.862 33.6672 186.609 34.4754 187.555 35.0548C188.531 35.6342 189.628 35.924 190.848 35.924Z" fill="white"/>
<path d="M156.265 42.0988C153.612 42.0988 151.309 41.5194 149.357 40.3605C147.406 39.1712 145.896 37.5854 144.829 35.6031C143.761 33.6208 143.228 31.4251 143.228 29.0159C143.228 26.5152 143.776 24.2889 144.874 22.3372C146.003 20.3854 147.512 18.8453 149.403 17.717C151.294 16.5886 153.429 16.0244 155.807 16.0244C157.79 16.0244 159.543 16.3446 161.068 16.9851C162.593 17.595 163.874 18.4641 164.91 19.5925C165.978 20.7209 166.786 22.0322 167.335 23.5265C167.884 24.9904 168.158 26.5914 168.158 28.3297C168.158 28.8177 168.128 29.3056 168.067 29.7935C168.036 30.251 167.96 30.6474 167.838 30.9829H149.129V25.951H163.95L160.702 28.3297C161.007 27.0184 160.992 25.8595 160.656 24.8531C160.321 23.8162 159.726 23.0081 158.872 22.4287C158.049 21.8187 157.027 21.5138 155.807 21.5138C154.618 21.5138 153.596 21.8035 152.742 22.3829C151.889 22.9623 151.248 23.8162 150.821 24.9446C150.394 26.073 150.226 27.4453 150.318 29.0616C150.196 30.4645 150.364 31.6996 150.821 32.7669C151.279 33.8343 151.98 34.673 152.925 35.2829C153.871 35.8623 155.014 36.152 156.356 36.152C157.576 36.152 158.613 35.9081 159.467 35.4201C160.351 34.9322 161.037 34.2613 161.525 33.4074L167.015 36.0148C166.527 37.2347 165.749 38.302 164.682 39.2169C163.645 40.1318 162.41 40.8485 160.976 41.3669C159.543 41.8549 157.973 42.0988 156.265 42.0988Z" fill="white"/>
<path d="M126.583 42.0995C124.143 42.0995 121.963 41.52 120.042 40.3612C118.12 39.2023 116.595 37.6317 115.467 35.6495C114.369 33.6672 113.82 31.4715 113.82 29.0623C113.82 26.6225 114.384 24.4268 115.513 22.475C116.641 20.4928 118.166 18.9222 120.087 17.7633C122.009 16.6045 124.159 16.0251 126.537 16.0251C128.367 16.0251 129.983 16.3758 131.386 17.0772C132.82 17.7481 133.948 18.7087 134.771 19.9591L133.719 21.3314V6.92188H140.581V41.5505H134.177V36.9761L134.817 38.3942C133.963 39.614 132.804 40.5442 131.34 41.1846C129.877 41.7945 128.291 42.0995 126.583 42.0995ZM127.406 35.924C128.657 35.924 129.755 35.6342 130.7 35.0548C131.645 34.4754 132.377 33.6672 132.896 32.6303C133.445 31.5935 133.719 30.4041 133.719 29.0623C133.719 27.7204 133.445 26.5311 132.896 25.4942C132.377 24.4573 131.645 23.6491 130.7 23.0697C129.755 22.4903 128.657 22.2006 127.406 22.2006C126.156 22.2006 125.028 22.5055 124.021 23.1155C123.045 23.6949 122.283 24.503 121.734 25.5399C121.185 26.5463 120.911 27.7204 120.911 29.0623C120.911 30.4041 121.185 31.5935 121.734 32.6303C122.283 33.6672 123.045 34.4754 124.021 35.0548C125.028 35.6342 126.156 35.924 127.406 35.924Z" fill="white"/>
<path d="M98.7997 42.0988C96.3294 42.0988 94.0727 41.5346 92.0295 40.4063C90.0167 39.2779 88.4004 37.7378 87.1805 35.7861C85.9912 33.8038 85.3965 31.5623 85.3965 29.0616C85.3965 26.5304 85.9912 24.2889 87.1805 22.3372C88.4004 20.3854 90.0167 18.8453 92.0295 17.717C94.0727 16.5886 96.3294 16.0244 98.7997 16.0244C101.27 16.0244 103.511 16.5886 105.524 17.717C107.537 18.8453 109.138 20.3854 110.327 22.3372C111.547 24.2889 112.157 26.5304 112.157 29.0616C112.157 31.5623 111.547 33.8038 110.327 35.7861C109.138 37.7378 107.537 39.2779 105.524 40.4063C103.511 41.5346 101.27 42.0988 98.7997 42.0988ZM98.7997 35.9233C100.05 35.9233 101.133 35.6336 102.048 35.0542C102.993 34.4747 103.725 33.6666 104.243 32.6297C104.792 31.5928 105.067 30.4035 105.067 29.0616C105.067 27.7198 104.792 26.5457 104.243 25.5393C103.725 24.5024 102.993 23.6943 102.048 23.1148C101.133 22.5049 100.05 22.1999 98.7997 22.1999C97.5493 22.1999 96.4514 22.5049 95.506 23.1148C94.5607 23.6943 93.8135 24.5024 93.2646 25.5393C92.7461 26.5457 92.4869 27.7198 92.4869 29.0616C92.4869 30.4035 92.7461 31.5928 93.2646 32.6297C93.8135 33.6666 94.5607 34.4747 95.506 35.0542C96.4514 35.6336 97.5493 35.9233 98.7997 35.9233Z" fill="white"/>
<path d="M72.0696 42.0988C69.5689 42.0988 67.3122 41.5346 65.2994 40.4063C63.3172 39.2474 61.7314 37.6769 60.542 35.6946C59.3831 33.7123 58.8037 31.4861 58.8037 29.0159C58.8037 26.5457 59.3831 24.3347 60.542 22.3829C61.7009 20.4006 63.2867 18.8453 65.2994 17.717C67.3122 16.5886 69.5689 16.0244 72.0696 16.0244C73.9299 16.0244 75.653 16.3446 77.2388 16.9851C78.8246 17.6255 80.1817 18.5251 81.3101 19.684C82.4384 20.8123 83.2466 22.1542 83.7345 23.7095L77.7877 26.2712C77.3608 25.0209 76.6289 24.0297 75.592 23.2978C74.5856 22.5659 73.4115 22.1999 72.0696 22.1999C70.8803 22.1999 69.8129 22.4896 68.8675 23.0691C67.9526 23.6485 67.2207 24.4567 66.6718 25.4935C66.1533 26.5304 65.8941 27.7198 65.8941 29.0616C65.8941 30.4035 66.1533 31.5928 66.6718 32.6297C67.2207 33.6666 67.9526 34.4747 68.8675 35.0542C69.8129 35.6336 70.8803 35.9233 72.0696 35.9233C73.442 35.9233 74.6313 35.5574 75.6377 34.8254C76.6441 34.0935 77.3608 33.1024 77.7877 31.852L83.7345 34.4595C83.2771 35.9233 82.4842 37.2347 81.3558 38.3935C80.2274 39.5524 78.8703 40.4673 77.2845 41.1382C75.6987 41.7786 73.9604 42.0988 72.0696 42.0988Z" fill="white"/>
</g>
<g clip-path="url(#clip1_487_1081)">
<path d="M50.3312 23.6976L46.8225 17.6203L46.7548 17.5028L43.24 11.415C43.1963 11.3388 43.1145 11.292 43.0271 11.292H42.9342C42.8463 11.292 42.765 11.3388 42.7214 11.415L39.1739 17.5582C39.1524 17.5957 39.1407 17.6381 39.1407 17.6812C39.1407 17.7243 39.1524 17.768 39.1739 17.8055L39.2096 17.867L42.6641 23.8502L39.1302 29.9717L39.0866 30.0474L35.5797 36.1216L32.2673 41.8581C32.0483 42.2377 32.0483 42.709 32.2673 43.0886L34.7485 47.3866C34.9713 47.7717 35.3693 48.0018 35.8141 48.0018C36.2589 48.0018 36.6576 47.7717 36.8797 47.3866L39.6237 42.6339L43.1742 36.4846L46.7487 30.2935L46.7795 30.2394L50.3312 24.0883C50.4007 23.9671 50.4001 23.8182 50.3312 23.6982V23.6976Z" fill="#FF4D00"/>
<path d="M27.7988 11.9053C27.5761 11.5201 27.178 11.29 26.7332 11.29H1.71163C1.26681 11.29 0.86814 11.5201 0.64604 11.9053C0.423325 12.2904 0.423325 12.7506 0.64604 13.1357L3.37584 17.8638L6.96758 24.0857L10.5501 30.2903L14.0089 36.2815L17.6388 42.5686C17.6825 42.6449 17.7643 42.6916 17.8517 42.6916C17.9391 42.6916 18.0209 42.6449 18.0646 42.5686L21.6465 36.3639C21.6901 36.2876 21.6901 36.1941 21.6465 36.1178L18.1402 30.0442L18.0166 29.8301L14.5577 23.8396L11.3923 18.356C11.3284 18.2447 11.3708 18.1468 11.3923 18.1099C11.4139 18.073 11.4772 17.9869 11.6052 17.9869H17.6333C17.7206 17.9869 17.8025 18.0342 17.8462 18.1099L20.3206 22.395C20.5433 22.7802 20.9414 23.0103 21.3862 23.0103C21.831 23.0103 22.2291 22.7802 22.4518 22.395L25.0678 17.8644L25.1957 17.643L27.7982 13.1357C28.0203 12.7506 28.0203 12.2904 27.7982 11.9053H27.7988Z" fill="#FF4D00"/>
<path d="M35.9725 23.8398C35.9288 23.7636 35.8476 23.7168 35.7596 23.7168H28.5232C28.4352 23.7168 28.354 23.7636 28.3103 23.8398L24.8041 29.9134L24.7278 30.0445L21.2216 36.1181L17.6397 42.3227C17.596 42.399 17.596 42.4925 17.6397 42.5688L20.4052 47.359C20.6279 47.7442 21.0259 47.9743 21.4708 47.9743C21.9156 47.9743 22.3142 47.7442 22.5363 47.359L25.2655 42.631L28.848 36.4263L32.3899 30.2912L32.4441 30.1977L35.9448 24.1339L35.9725 24.0859C36.0161 24.0096 36.0161 23.9161 35.9725 23.8398Z" fill="#FF4D00"/>
<path d="M46.3586 4.91326L43.8774 0.615235C43.6547 0.230098 43.2566 0 42.8118 0C42.367 0 41.9683 0.230098 41.7462 0.615235L39.017 5.34331L35.4345 11.548L31.8926 17.6831L31.8385 17.7766L28.3101 23.8883C28.2664 23.9646 28.2664 24.0581 28.3101 24.1344C28.3538 24.2107 28.4356 24.2575 28.523 24.2575H35.7594C35.8473 24.2575 35.9286 24.2107 35.9722 24.1344L39.4785 18.0608L39.5548 17.9298L43.061 11.8562L46.3586 6.14373C46.5777 5.76413 46.5777 5.29286 46.3586 4.91326Z" fill="#FF4D00"/>
</g>
<defs>
<clipPath id="clip0_487_1081">
<rect width="296.196" height="44.9822" fill="white" transform="translate(58.8037 6.8623)"/>
</clipPath>
<clipPath id="clip1_487_1081">
<rect width="49.9035" height="48" fill="white" transform="translate(0.479492)"/>
</clipPath>
</defs>
</svg>
